<svg width="1195.702" height="233.138" viewBox="0 0 1195.702 233.138" xmlns="http://www.w3.org/2000/svg"><g id="svgGroup" stroke-linecap="round" fill-rule="nonzero" font-size="9pt" stroke="#ffffff" stroke-width="0mm" fill="#ffffff" style="stroke:#ffffff;stroke-width:0mm;fill:#ffffff"><path d="M 665.027 124.545 L 698.704 124.545 A 70.195 70.195 0 0 1 694.631 144.145 A 61.722 61.722 0 0 1 689.251 155.208 A 56.825 56.825 0 0 1 667.244 175.637 A 67.726 67.726 0 0 1 666.091 176.242 Q 651.856 183.528 631.898 183.849 A 115.133 115.133 0 0 1 630.051 183.863 Q 608.309 183.863 592.475 173.819 A 64.092 64.092 0 0 1 570.329 149.774 A 78.593 78.593 0 0 1 568.074 145.283 Q 559.507 126.79 559.507 101.621 L 559.507 89.45 A 122.255 122.255 0 0 1 561.192 68.636 Q 563.291 56.49 568.003 46.38 A 76.821 76.821 0 0 1 568.31 45.729 A 71.113 71.113 0 0 1 581.694 26.335 A 64.377 64.377 0 0 1 593.065 17.134 A 64.512 64.512 0 0 1 618.988 7.776 A 83.631 83.631 0 0 1 630.76 6.972 Q 652.029 6.972 666.563 14.771 A 57.1 57.1 0 0 1 689.192 36.217 A 70.113 70.113 0 0 1 697.836 59.886 A 84.669 84.669 0 0 1 698.822 67.354 L 665.146 67.354 A 59.652 59.652 0 0 0 663.499 57.608 Q 662.126 52.366 659.798 48.245 A 29.526 29.526 0 0 0 656.165 43.13 Q 650.597 36.865 639.454 35.214 A 59.451 59.451 0 0 0 630.76 34.622 Q 618.353 34.622 610.14 40.708 Q 601.928 46.793 597.851 58.905 Q 594.682 68.32 593.977 81.412 A 145.099 145.099 0 0 0 593.774 89.214 L 593.774 101.621 Q 593.774 119.228 597.438 131.398 Q 601.101 143.569 609.077 149.95 A 27.931 27.931 0 0 0 619.977 155.195 Q 624.567 156.331 630.051 156.331 Q 641.749 156.331 649.075 152.727 A 24.867 24.867 0 0 0 660.242 142.033 A 36.949 36.949 0 0 0 663.283 134.389 Q 664.304 130.747 664.817 126.525 A 65.686 65.686 0 0 0 665.027 124.545 Z M 989.624 121.945 L 989.624 117.337 A 88.394 88.394 0 0 1 991.357 99.444 A 68.267 68.267 0 0 1 997.009 82.833 A 57.341 57.341 0 0 1 1010.891 64.66 A 55.034 55.034 0 0 1 1017.747 59.614 Q 1031.1 51.283 1048.706 51.283 A 71.939 71.939 0 0 1 1062.253 52.491 Q 1070.546 54.081 1077.198 57.764 A 43.453 43.453 0 0 1 1079.606 59.2 A 49.426 49.426 0 0 1 1098.077 80.798 A 59.294 59.294 0 0 1 1098.276 81.238 A 70.373 70.373 0 0 1 1103.388 98.6 A 95.397 95.397 0 0 1 1104.598 114.146 L 1104.598 127.972 L 1004.158 127.972 L 1004.158 105.402 L 1072.575 105.402 L 1072.575 102.803 Q 1072.339 95.831 1069.857 90.041 A 20.437 20.437 0 0 0 1062.177 80.824 A 19.325 19.325 0 0 0 1056.391 78.309 Q 1053.838 77.639 1050.826 77.462 A 38.003 38.003 0 0 0 1048.588 77.397 Q 1039.489 77.397 1033.64 82.538 A 27.477 27.477 0 0 0 1027.506 90.44 A 37.403 37.403 0 0 0 1024.955 96.599 A 57.566 57.566 0 0 0 1022.828 106.244 Q 1022.208 110.781 1022.13 115.871 A 96.233 96.233 0 0 0 1022.119 117.337 L 1022.119 121.945 A 48.75 48.75 0 0 0 1023.064 131.753 A 38.209 38.209 0 0 0 1025.9 140.379 Q 1029.682 148.414 1037.008 153.022 A 29.712 29.712 0 0 0 1048.366 157.181 A 38.828 38.828 0 0 0 1054.378 157.631 A 44.426 44.426 0 0 0 1065.787 156.209 A 38.672 38.672 0 0 0 1072.043 153.968 Q 1080.02 150.305 1085.691 142.86 L 1101.998 160.467 A 44.457 44.457 0 0 1 1094.964 168.421 Q 1091.381 171.656 1086.793 174.637 A 84.021 84.021 0 0 1 1083.624 176.596 Q 1072.629 183.067 1056.434 183.776 A 92.938 92.938 0 0 1 1052.369 183.863 A 76.578 76.578 0 0 1 1035.804 182.153 A 57.95 57.95 0 0 1 1018.751 175.533 A 56.626 56.626 0 0 1 997.127 153.2 A 63.872 63.872 0 0 1 989.756 126.471 A 76.504 76.504 0 0 1 989.624 121.945 Z M 419.01 167.084 L 452.923 53.646 L 487.663 53.646 L 436.616 200.761 A 88.528 88.528 0 0 1 434.596 205.668 Q 433.437 208.272 432.008 211.1 A 46.157 46.157 0 0 1 426.229 219.831 A 52.836 52.836 0 0 1 424.563 221.735 A 33.779 33.779 0 0 1 416.718 228.008 A 41.257 41.257 0 0 1 412.983 229.947 Q 406.67 232.836 397.935 233.109 A 59.213 59.213 0 0 1 396.086 233.138 A 64.339 64.339 0 0 1 393.265 233.079 A 48.122 48.122 0 0 1 390.709 232.901 A 34.976 34.976 0 0 1 386.06 232.137 A 32.982 32.982 0 0 1 386.042 232.133 A 101.597 101.597 0 0 1 382.843 231.318 A 120.036 120.036 0 0 1 381.315 230.893 L 381.315 206.196 A 28.591 28.591 0 0 1 382.417 206.219 Q 382.981 206.241 383.608 206.284 A 49.822 49.822 0 0 1 384.033 206.314 A 48.544 48.544 0 0 0 385.119 206.386 Q 385.968 206.433 386.633 206.433 A 49.462 49.462 0 0 0 392 206.162 Q 397.697 205.538 401.191 203.478 A 13.333 13.333 0 0 0 401.935 203.006 A 16.935 16.935 0 0 0 406.259 198.633 Q 407.644 196.647 408.739 194.097 A 34.834 34.834 0 0 0 409.675 191.662 L 419.01 167.084 Z M 198.752 153.259 L 198.752 95.713 Q 198.752 87.419 194.829 82.139 A 17.512 17.512 0 0 0 193.907 81.001 Q 189.82 76.366 181.864 75.641 A 33.992 33.992 0 0 0 178.782 75.507 A 29.384 29.384 0 0 0 173.609 75.941 A 21.721 21.721 0 0 0 168.443 77.516 Q 164.012 79.524 161.648 83.069 A 13.938 13.938 0 0 0 159.499 88.72 A 18.446 18.446 0 0 0 159.285 91.577 L 126.79 91.577 A 33.466 33.466 0 0 1 133.407 71.548 A 42.354 42.354 0 0 1 144.379 61.134 A 56.01 56.01 0 0 1 152.136 56.837 A 59.252 59.252 0 0 1 167.089 52.346 A 81.322 81.322 0 0 1 180.555 51.283 A 74.057 74.057 0 0 1 194.832 52.603 A 58.408 58.408 0 0 1 206.728 56.246 A 41.166 41.166 0 0 1 220.444 65.646 A 39.553 39.553 0 0 1 224.807 71.135 A 38.197 38.197 0 0 1 230.176 84.17 Q 231.365 89.61 231.365 95.949 L 231.365 150.896 A 131.735 131.735 0 0 0 231.533 157.757 Q 231.701 160.975 232.039 163.748 A 58.905 58.905 0 0 0 232.665 167.793 A 53.865 53.865 0 0 0 234.143 173.718 Q 235.097 176.757 236.364 179.326 A 33.447 33.447 0 0 0 236.446 179.491 L 236.446 181.5 L 203.479 181.5 A 35.312 35.312 0 0 1 201.753 176.933 Q 201.055 174.646 200.518 171.994 A 70.282 70.282 0 0 1 199.934 168.679 Q 198.752 160.939 198.752 153.259 Z M 203.242 103.394 L 182.8 103.394 Q 165.568 103.394 153.254 107.319 A 49.836 49.836 0 0 0 138.902 114.383 A 34.929 34.929 0 0 0 125.955 131.72 A 43.147 43.147 0 0 0 123.836 145.578 A 42.2 42.2 0 0 0 123.858 146.957 A 34.823 34.823 0 0 0 129.567 165.371 Q 135.298 174.056 145.165 178.959 A 45.209 45.209 0 0 0 153.921 182.224 A 53.006 53.006 0 0 0 167.32 183.863 A 53.138 53.138 0 0 0 175.288 183.293 A 39.021 39.021 0 0 0 184.159 180.909 A 48.797 48.797 0 0 0 188.493 178.901 A 39.686 39.686 0 0 0 196.566 173.347 A 51.522 51.522 0 0 0 199.308 170.703 A 43.167 43.167 0 0 0 204.956 163.48 A 58.828 58.828 0 0 0 207.573 158.8 A 44.246 44.246 0 0 0 209.859 153.377 L 200.524 139.197 Q 200.524 141.817 199.058 144.757 A 22.837 22.837 0 0 1 197.275 147.705 A 23.153 23.153 0 0 1 193.072 152.201 A 30.447 30.447 0 0 1 188.117 155.504 A 25.62 25.62 0 0 1 181.129 158.016 A 34.051 34.051 0 0 1 174.174 158.694 Q 170.7 158.694 167.864 157.924 A 15.329 15.329 0 0 1 161.117 154.204 Q 156.449 149.714 156.449 142.979 A 18.888 18.888 0 0 1 158.043 135.142 A 18.695 18.695 0 0 1 163.244 128.444 A 17.261 17.261 0 0 1 163.594 128.159 Q 170.402 122.772 184.336 122.772 L 203.479 122.772 L 203.242 103.394 Z M 33.795 9.453 L 33.795 181.5 L 0 181.5 L 0 9.453 L 33.795 9.453 Z M 715.365 118.873 L 715.365 116.392 A 84.269 84.269 0 0 1 717.366 97.672 A 68.761 68.761 0 0 1 722.455 83.01 Q 729.545 68.299 742.957 59.791 A 53.53 53.53 0 0 1 761.914 52.48 A 72.69 72.69 0 0 1 775.393 51.283 A 73.526 73.526 0 0 1 790.692 52.797 A 53.315 53.315 0 0 1 808.242 59.791 Q 821.713 68.299 828.744 83.01 A 71.674 71.674 0 0 1 835.088 105.109 A 90.189 90.189 0 0 1 835.774 116.392 L 835.774 118.873 A 84.155 84.155 0 0 1 833.672 138.033 A 69.659 69.659 0 0 1 828.744 152.195 Q 821.713 166.966 808.301 175.415 A 53.565 53.565 0 0 1 789.784 182.574 A 74.128 74.128 0 0 1 775.629 183.863 A 72.266 72.266 0 0 1 759.997 182.253 A 53.39 53.39 0 0 1 743.016 175.415 Q 729.545 166.966 722.455 152.195 A 72.027 72.027 0 0 1 715.926 129.009 A 89.442 89.442 0 0 1 715.365 118.873 Z M 747.979 116.392 L 747.979 118.873 Q 747.979 129.508 750.755 138.37 A 34.265 34.265 0 0 0 754.188 146.054 A 27.231 27.231 0 0 0 759.618 152.491 Q 765.703 157.749 775.629 157.749 A 30.477 30.477 0 0 0 782.533 157.01 A 20.92 20.92 0 0 0 791.64 152.491 A 28.057 28.057 0 0 0 798.562 143.314 A 36.44 36.44 0 0 0 800.502 138.37 Q 803.279 129.508 803.279 118.873 L 803.279 116.392 A 69.809 69.809 0 0 0 802.3 104.486 A 58.051 58.051 0 0 0 800.502 97.013 A 34.668 34.668 0 0 0 796.907 89.036 A 28.076 28.076 0 0 0 791.64 82.774 A 20.717 20.717 0 0 0 782.576 78.185 Q 779.489 77.447 775.877 77.401 A 37.869 37.869 0 0 0 775.393 77.397 Q 765.585 77.397 759.5 82.774 A 28.721 28.721 0 0 0 752.378 92.551 A 36.814 36.814 0 0 0 750.696 97.013 Q 747.979 105.875 747.979 116.392 Z M 852.554 119.109 L 852.554 116.628 A 109.03 109.03 0 0 1 853.809 99.671 A 79.238 79.238 0 0 1 858.462 82.419 A 57.594 57.594 0 0 1 865.666 69.378 A 46.86 46.86 0 0 1 875.596 59.496 A 42.295 42.295 0 0 1 895.035 51.805 A 55.717 55.717 0 0 1 902.773 51.283 A 46.452 46.452 0 0 1 914.741 52.755 A 35.82 35.82 0 0 1 928.238 59.555 A 50.15 50.15 0 0 1 939.33 72.34 A 67.165 67.165 0 0 1 944.367 82.36 A 110.665 110.665 0 0 1 949.698 99.565 A 148.357 148.357 0 0 1 952.402 115.801 L 952.402 120.646 A 137.019 137.019 0 0 1 949.075 138.787 A 107.177 107.177 0 0 1 944.367 153.022 A 63.999 63.999 0 0 1 937.868 165.103 A 49.727 49.727 0 0 1 928.179 175.592 A 36.993 36.993 0 0 1 910.558 183.245 A 50.164 50.164 0 0 1 902.537 183.863 A 48.785 48.785 0 0 1 888.392 181.889 A 40.601 40.601 0 0 1 875.596 175.415 A 50.549 50.549 0 0 1 861.523 158.841 A 63.564 63.564 0 0 1 858.462 152.313 A 80.516 80.516 0 0 1 853.385 132.475 A 103.938 103.938 0 0 1 852.554 119.109 Z M 934.087 153.85 L 937.277 181.5 L 966.7 181.5 L 966.7 0 L 934.087 0 L 934.087 153.85 Z M 885.049 116.628 L 885.049 119.109 A 79.025 79.025 0 0 0 885.749 129.859 A 61.756 61.756 0 0 0 887.53 138.429 A 33.829 33.829 0 0 0 890.434 145.572 A 25.863 25.863 0 0 0 895.684 152.254 Q 901.355 157.395 910.69 157.395 A 33.779 33.779 0 0 0 917.049 156.83 Q 920.809 156.109 923.812 154.468 A 19.504 19.504 0 0 0 925.579 153.377 A 25.697 25.697 0 0 0 933.499 144.452 A 31.433 31.433 0 0 0 934.56 142.329 A 45.351 45.351 0 0 0 937.621 132.795 A 57.846 57.846 0 0 0 938.577 126.317 L 938.577 110.129 A 62.42 62.42 0 0 0 937.636 102.522 A 49.101 49.101 0 0 0 936.214 96.835 Q 934.323 90.868 930.956 86.614 Q 927.588 82.36 922.625 80.056 A 24.019 24.019 0 0 0 916.527 78.201 A 33.258 33.258 0 0 0 910.927 77.752 A 27.636 27.636 0 0 0 904.432 78.475 A 19.433 19.433 0 0 0 895.861 82.892 Q 890.13 88.032 887.589 96.835 A 63.327 63.327 0 0 0 885.535 107.431 A 83.566 83.566 0 0 0 885.049 116.628 Z M 357.564 73.144 L 275.677 181.5 L 254.289 181.5 L 254.289 161.294 L 335.822 53.646 L 357.564 53.646 L 357.564 73.144 Z M 345.748 53.646 L 255.943 53.646 L 255.943 79.879 L 345.748 79.879 L 345.748 53.646 Z M 403.767 53.646 L 431.89 146.169 L 436.853 181.618 L 414.638 184.809 L 368.672 53.646 L 403.767 53.646 Z M 1157.417 80.942 L 1157.417 181.5 L 1124.922 181.5 L 1124.922 53.646 L 1155.645 53.646 L 1157.417 80.942 Z M 359.691 155.386 L 359.691 181.5 L 263.506 181.5 L 263.506 155.386 L 359.691 155.386 Z M 110.011 154.322 L 110.011 181.5 L 23.751 181.5 L 23.751 154.322 L 110.011 154.322 Z M 1195.702 52.819 L 1195.348 83.896 A 129.789 129.789 0 0 0 1192.482 83.557 A 173.088 173.088 0 0 0 1189.321 83.247 Q 1186.013 82.951 1183.177 82.951 Q 1175.57 82.951 1170.029 85.017 A 24.532 24.532 0 0 0 1167.461 86.142 Q 1161.198 89.332 1158.067 95.358 A 29.102 29.102 0 0 0 1155.576 102.264 Q 1154.753 105.833 1154.581 110.011 L 1147.728 108.593 A 110.126 110.126 0 0 1 1148.726 93.412 A 81.891 81.891 0 0 1 1151.981 79.111 A 55.438 55.438 0 0 1 1156.46 68.882 A 40.301 40.301 0 0 1 1164.566 58.728 A 29.081 29.081 0 0 1 1182.083 51.407 A 38.201 38.201 0 0 1 1185.186 51.283 A 37.418 37.418 0 0 1 1187.903 51.387 A 48.74 48.74 0 0 1 1190.857 51.697 A 33.924 33.924 0 0 1 1192.651 51.984 Q 1194.484 52.332 1195.702 52.819 Z" vector-effect="non-scaling-stroke"/></g></svg>